# xmcd
#
# Track frame offsets:
#	150
#	9355
#	17697
#	25875
#	34520
#	46245
#	54977
#	67280
#	79892
#	87615
#	101452
#	112497
#	123257
#	134722
#	146335
#	159447
#	170365
#	179500
#	187870
#	196022
#	204667
#	216362
#	225075
#	237350
#	250009
#	257782
#	271512
#	282507
#	293165
#	304545
#	316137
#	329220
#	339855
#
# Disc length: 4560 seconds
#
# Revision: 0
# Processed by: cddbd v1.5.1PL0 Copyright (c) Steve Scherf et al.
# Submitted via: audiograbber 1.81.02
#
DISCID=d511ce21
DTITLE=Gerth Medien - Majesty Junior (www.gerth.de)
DYEAR=2005
DGENRE=Big Band
TTITLE0=Roll Jordan Roll
TTITLE1=Michael Row The Boat Ashore
TTITLE2=Oh When The Saints Go Marching In
TTITLE3=Kum Ba Yah My Lord
TTITLE4=Go Tell It On The Mountains
TTITLE5=Joshua Fit The Battle Of Jericho
TTITLE6=Swing Low Sweet Chariot
TTITLE7=Oh Happy Day
TTITLE8=Amen
TTITLE9=Deep River
TTITLE10=Hes Got The Whole World In His Hand
TTITLE11=Rock My Soul
TTITLE12=Sometimes I Feel Like A Motherless Child
TTITLE13=Over In The GloryLand
TTITLE14=Nobody Knows The Trouble Ive Seen
TTITLE15=Glory Hallelujah
TTITLE16=PLAYBACK Roll Jordan Roll
TTITLE17=PLAYBACK Michael Row The Boat Ashore
TTITLE18=PLAYBACK Oh When The Saints Go Marching In
TTITLE19=PLAYBACK Kum Ba Yah My Lord
TTITLE20=PLAYBACK Go Tell It On The Mountains
TTITLE21=PLAYBACK Joshua Fit The Battle Of Jericho
TTITLE22=PLAYBACK Swing Low Sweet Chariot
TTITLE23=PLAYBACK Oh Happy Day
TTITLE24=PLAYBACK Amen
TTITLE25=PLAYBACK Deep River
TTITLE26=PLAYBACK Hes Got The Whole World In His Hand
TTITLE27=PLAYBACK Rock My Soul
TTITLE28=PLAYBACK Sometimes I Feel Like A Motherless Child
TTITLE29=PLAYBACK Over In The GloryLand
TTITLE30=PLAYBACK Nobody Knows The Trouble Ive Seen
TTITLE31=PLAYBACK Glory Hallelujah
TTITLE32=Stimmtoene B1
EXTD=www.gerth.de 
EXTT0=
EXTT1=
EXTT2=
EXTT3=
EXTT4=
EXTT5=
EXTT6=
EXTT7=
EXTT8=
EXTT9=
EXTT10=
EXTT11=
EXTT12=
EXTT13=
EXTT14=
EXTT15=
EXTT16=
EXTT17=
EXTT18=
EXTT19=
EXTT20=
EXTT21=
EXTT22=
EXTT23=
EXTT24=
EXTT25=
EXTT26=
EXTT27=
EXTT28=
EXTT29=
EXTT30=
EXTT31=
EXTT32=
PLAYORDER=
